<svg xmlns="http://www.w3.org/2000/svg" viewBox="-8 -8 196 150" role="img" aria-labelledby="title">
  <title id="title">Wonder Why Daily icon</title>
  <path d="M6 92C-2 66 28 34 74 16C120-2 164 4 174 28C184 52 158 82 122 100C78 122 30 118 12 104" fill="none" stroke="#17221c" stroke-linecap="round" stroke-linejoin="round" stroke-width="9"/>
  <path d="M18 104C38 124 86 122 128 102C158 88 176 68 172 48" fill="none" stroke="#17221c" stroke-linecap="round" stroke-linejoin="round" stroke-width="3.8"/>
  <path d="M52 4C28 10 42 54 68 86C94 118 130 134 156 126C176 120 170 96 156 72C134 38 86-2 56 4" fill="none" stroke="#d5f07c" stroke-linecap="round" stroke-linejoin="round" stroke-width="5.4"/>
  <circle cx="156" cy="72" r="8.2" fill="#d5f07c" stroke="#17221c" stroke-width="3"/>
</svg>
