<svg xmlns="http://www.w3.org/2000/svg" viewBox="0 0 64 64" role="img" aria-labelledby="title">
  <title id="title">Wonder Why Daily favicon</title>
  <rect width="64" height="64" rx="16" fill="#17221c"/>
  <path d="M5 43C1 31 14 16 33 9C51 2 60 8 60 17C60 29 48 42 33 49C19 55 8 52 5 47" fill="none" stroke="#fffaf0" stroke-linecap="round" stroke-linejoin="round" stroke-width="4"/>
  <path d="M8 49C17 58 38 56 52 47C60 42 62 35 59 29" fill="none" stroke="#fffaf0" stroke-linecap="round" stroke-linejoin="round" stroke-width="2"/>
  <path d="M20 5C10 8 17 29 30 43C40 54 52 59 58 53C63 48 57 35 48 24C37 11 25 3 20 5" fill="none" stroke="#d5f07c" stroke-linecap="round" stroke-linejoin="round" stroke-width="3.5"/>
  <circle cx="48" cy="34" r="4.3" fill="#d5f07c" stroke="#17221c" stroke-width="2"/>
</svg>
